<svg width="124" height="57" viewBox="0 0 124 57" fill="none" xmlns="http://www.w3.org/2000/svg">
<path d="M98.7587 32.4788C98.3987 32.4788 98.0787 32.4788 97.7587 32.4788C91.0787 32.4788 84.3887 32.5688 77.7087 32.4488C73.6187 32.3788 70.3087 35.3988 69.5187 38.7288C68.3587 43.5988 66.9587 48.4088 65.6487 53.2388C65.1887 54.9288 63.7287 56.1488 62.0687 56.2788C60.4287 56.4088 58.7487 55.5288 58.1987 53.9588C57.8887 53.0888 57.8087 51.9888 58.0287 51.0988C59.3087 46.0088 60.6687 40.9488 62.0987 35.8988C63.9387 29.3788 70.0187 24.6788 76.8187 24.5988C84.5187 24.5088 92.2187 24.5588 99.9187 24.5888C100.719 24.5888 101.049 24.3788 101.249 23.5888C102.249 19.6588 103.259 15.7388 104.379 11.8388C106.489 4.48879 112.899 0.0787884 119.779 0.0187884C121.959 -0.00121162 123.729 1.71879 123.809 3.87879C123.889 6.06879 122.229 7.83879 119.899 7.92879C117.339 8.02879 115.079 8.91879 113.629 10.9988C112.669 12.3788 112.119 14.0888 111.619 15.7288C110.779 18.4888 110.129 21.3088 109.399 24.1088C109.369 24.2188 109.379 24.3388 109.359 24.5688C109.709 24.5688 110.029 24.5688 110.339 24.5688C113.149 24.5688 115.949 24.5588 118.759 24.5688C121.089 24.5888 122.879 26.3188 122.869 28.5188C122.869 30.7088 121.059 32.4588 118.739 32.4788C115.219 32.4988 111.699 32.4788 108.179 32.4788C107.849 32.4788 107.529 32.4788 107.109 32.4788C106.629 34.3088 106.179 36.1188 105.669 37.9188C104.869 40.7588 104.279 43.6888 103.179 46.3988C101.029 51.6888 96.9787 54.8788 91.3387 55.9688C89.8787 56.2488 88.3987 56.5888 86.9387 55.9688C85.1987 55.2188 84.2487 53.5388 84.5287 51.7088C84.7987 49.9788 86.3287 48.4788 88.1187 48.3788C90.4987 48.2488 92.7187 47.7088 94.2687 45.7888C95.0587 44.8188 95.7587 43.6688 96.1287 42.4788C97.1087 39.3488 97.8787 36.1588 98.7287 32.9988C98.7687 32.8588 98.7487 32.7088 98.7687 32.4788H98.7587Z" fill="black"/>
<path d="M25.1087 24.5588H33.8887C32.7187 25.3088 31.6087 25.9688 30.5687 26.7088C28.7287 28.0288 27.2387 29.6988 26.0987 31.6488C25.7087 32.3188 25.2887 32.5188 24.5487 32.4888C22.9787 32.4288 22.9987 32.4788 22.5887 33.9988C21.5987 37.6788 20.7087 41.3988 19.5687 45.0288C17.6787 51.0488 13.4987 54.6388 7.34865 55.9388C5.83865 56.2588 4.29866 56.5688 2.77866 55.9188C1.16866 55.2288 0.238655 53.5888 0.458655 51.7788C0.658655 50.1088 2.04865 48.6488 3.69865 48.3988C4.51865 48.2688 5.36866 48.2588 6.17866 48.0788C9.05866 47.4388 11.0587 45.7088 11.9187 42.8888C12.9587 39.4688 13.8387 36.0088 14.8087 32.4688C11.7387 32.4688 8.78865 32.4888 5.83865 32.4688C3.76865 32.4488 2.17865 31.1088 1.84865 29.1788C1.43865 26.7488 3.16866 24.6088 5.63866 24.5788C9.06866 24.5388 12.4987 24.5388 15.9387 24.5788C16.6987 24.5788 17.0187 24.3788 17.2187 23.6088C18.2787 19.5088 19.3087 15.4088 20.5187 11.3488C22.5287 4.61876 28.4887 0.178764 35.5087 0.0087642C37.8187 -0.0512358 39.6087 1.55876 39.6887 3.75876C39.7687 6.09876 38.2387 7.80876 35.8387 7.90876C34.0187 7.97876 32.3986 8.52876 30.9286 9.59876C29.7286 10.4688 28.7987 11.5488 28.3787 12.9688C27.2687 16.7688 26.2287 20.5888 25.1087 24.5588Z" fill="black"/>
<path d="M40.9087 24.5687C49.7087 24.5587 56.8287 31.6287 56.8487 40.3887C56.8687 49.1187 49.7087 56.2887 40.9687 56.2987C32.1687 56.2987 24.9787 49.1587 24.9787 40.3987C24.9787 31.6387 32.0887 24.5787 40.9087 24.5687ZM40.8787 48.3187C45.3687 48.3487 48.8487 44.9387 48.8987 40.4587C48.9487 36.1187 45.4187 32.5587 41.0587 32.4787C36.2487 32.3987 32.9587 36.3387 32.9187 40.3687C32.8687 44.7687 36.4087 48.2887 40.8887 48.3187H40.8787Z" fill="black"/>
<path d="M83.7987 35.9588C82.7187 39.9288 81.6687 43.7188 80.6487 47.5088C80.1387 49.4088 79.6687 51.3188 79.1587 53.2188C78.6587 55.0388 77.0287 56.2987 75.2287 56.2987C73.4687 56.2987 71.9187 55.1387 71.4287 53.3287C71.2687 52.7287 71.2587 52.0088 71.4187 51.3988C72.6887 46.5288 74.0187 41.6688 75.3087 36.7988C75.4687 36.1888 75.6987 35.9288 76.3787 35.9388C78.7887 35.9888 81.1987 35.9588 83.7987 35.9588Z" fill="black"/>
<path d="M70.1887 24.6388C68.1987 25.6588 66.3787 26.8988 64.9187 28.5688C63.9787 29.6388 63.2087 30.8388 62.3187 31.9488C62.1187 32.1988 61.7386 32.4488 61.4286 32.4588C59.8786 32.5088 58.3287 32.4988 56.7787 32.4588C56.5287 32.4588 56.1587 32.3288 56.0487 32.1388C54.1887 28.8088 51.4787 26.3988 47.8487 24.6288C55.4587 24.6288 62.8187 24.6288 70.1887 24.6288V24.6388Z" fill="black"/>
<path d="M84.5287 21.7488C82.3087 21.7488 80.5187 19.9888 80.5187 17.8088C80.5187 15.6488 82.3487 13.8488 84.5387 13.8488C86.7387 13.8488 88.5487 15.6488 88.5487 17.8088C88.5487 19.9888 86.7487 21.7488 84.5287 21.7488Z" fill="black"/>
</svg>
